<svg width="20" height="20" viewBox="0 0 20 20" fill="none" xmlns="http://www.w3.org/2000/svg">
<path d="M18.0337 2.04297H18.0327C17.2241 1.23682 16.1509 0.792969 15.0102 0.792969C13.8696 0.792969 12.7964 1.23682 11.9888 2.04248L3.15087 10.7212C2.89843 10.9736 2.7119 11.2886 2.61083 11.6323L0.74999 18.063C0.713857 18.1978 0.708975 18.3364 0.73583 18.4722C0.761709 18.6079 0.819814 18.7368 0.903799 18.8462C0.987295 18.9565 1.09618 19.0464 1.21923 19.1079C1.34374 19.1694 1.48192 19.2017 1.61815 19.2017C1.70409 19.2017 1.78954 19.1899 1.87108 19.1655L8.30077 17.3052C8.64452 17.2046 8.95946 17.0181 9.21093 16.7661L18.0337 8.0874C18.8384 7.27979 19.2817 6.20654 19.2817 5.06543C19.2817 3.92383 18.8384 2.85059 18.0337 2.04297ZM6.88866 15.8267L2.94237 16.9751L4.08983 13.0278L6.88866 15.8267ZM16.6821 6.87891L8.51024 14.895L5.03515 11.4194L13.2602 3.32764C13.7339 2.93262 14.3354 2.72461 14.9517 2.75781C15.5679 2.78516 16.1479 3.04102 16.5864 3.47803C17.022 3.91406 17.2778 4.49414 17.3061 5.11133C17.3345 5.72803 17.1313 6.3291 16.7358 6.80371L16.6772 6.87402L16.6821 6.87891Z" fill="#1E2F4B"/>
</svg>
