<svg width="20" height="20" viewBox="0 0 20 20" fill="none" xmlns="http://www.w3.org/2000/svg">
<path d="M6.02856 8.58159C6.02856 8.26039 6.28895 8 6.61016 8H13.3899C13.7111 8 13.9715 8.26039 13.9715 8.58159C13.9715 8.9028 13.7111 9.16318 13.3899 9.16318H6.61016C6.28895 9.16318 6.02856 8.9028 6.02856 8.58159Z" fill="#1E2F4B"/>
<path d="M6.02856 11.4184C6.02856 11.0972 6.28895 10.8368 6.61016 10.8368H11.2831C11.6043 10.8368 11.8647 11.0972 11.8647 11.4184C11.8647 11.7396 11.6043 12 11.2831 12H6.61016C6.28895 12 6.02856 11.7396 6.02856 11.4184Z" fill="#1E2F4B"/>
<path fill-rule="evenodd" clip-rule="evenodd" d="M5.31958 0.457031C2.55816 0.457031 0.31958 2.69561 0.31958 5.45704V14.5428C0.31958 17.3042 2.55815 19.5428 5.31958 19.5428H14.6804C17.4418 19.5428 19.6804 17.3042 19.6804 14.5428V5.45703C19.6804 2.69561 17.4418 0.457031 14.6804 0.457031H5.31958ZM14.6804 2.35703H5.31958C3.6075 2.35703 2.21958 3.74495 2.21958 5.45704V14.5428C2.21958 16.2549 3.6075 17.6428 5.31958 17.6428H14.6804C16.3924 17.6428 17.7804 16.2549 17.7804 14.5428V5.45703C17.7804 3.74495 16.3924 2.35703 14.6804 2.35703Z" fill="#1E2F4B"/>
</svg>
