<svg width="39" height="39" viewBox="0 0 39 39" fill="none" xmlns="http://www.w3.org/2000/svg">
<path d="M19.4996 3.79433C24.6148 3.79433 25.2206 3.81388 27.2409 3.90604C29.1087 3.99129 30.1229 4.3033 30.7981 4.56565C31.6302 4.87276 32.3828 5.36244 33.0008 5.99871C33.637 6.61664 34.1267 7.36932 34.4338 8.20141C34.6962 8.87645 35.0083 9.89081 35.0934 11.7586C35.1856 13.7787 35.2051 14.3846 35.2051 19.4999C35.2051 24.6153 35.1856 25.221 35.0934 27.2412C35.0082 29.109 34.6961 30.1233 34.4338 30.7984C34.1151 31.6246 33.627 32.375 33.0008 33.0011C32.3746 33.6273 31.6243 34.1155 30.7981 34.4342C30.123 34.6965 29.1087 35.0086 27.2409 35.0938C25.2211 35.186 24.6153 35.2055 19.4996 35.2055C14.3838 35.2055 13.7782 35.186 11.7583 35.0938C9.89045 35.0085 8.87617 34.6965 8.20105 34.4342C7.36897 34.1271 6.61629 33.6374 5.99835 33.0011C5.36209 32.3832 4.87241 31.6305 4.5653 30.7984C4.30295 30.1234 3.99086 29.109 3.90569 27.2412C3.81352 25.2212 3.79398 24.6153 3.79398 19.4999C3.79398 14.3846 3.81352 13.7789 3.90569 11.7586C3.99094 9.89081 4.30295 8.87653 4.5653 8.20141C4.87244 7.36928 5.36218 6.61657 5.99851 5.99863C6.61644 5.36237 7.36912 4.87268 8.20121 4.56557C8.87625 4.30322 9.8906 3.99114 11.7584 3.90597C13.7785 3.8138 14.3842 3.79433 19.4996 3.79433ZM19.4997 0.342529C14.2969 0.342529 13.6443 0.364582 11.6013 0.457812C9.56217 0.550891 8.16965 0.874687 6.95111 1.34829C5.67285 1.82932 4.51491 2.58339 3.55802 3.55791C2.58327 4.51474 1.829 5.67269 1.34779 6.95101C0.874565 8.16962 0.550769 9.56214 0.458071 11.6013C0.36446 13.6443 0.342407 14.2969 0.342407 19.4997C0.342407 24.7025 0.36446 25.3551 0.458071 27.3981C0.551149 29.4372 0.874945 30.8298 1.34855 32.0483C1.82958 33.3266 2.58365 34.4845 3.55817 35.4414C4.51506 36.4159 5.673 37.17 6.95126 37.651C8.16987 38.1246 9.5624 38.4484 11.6014 38.5415C13.6448 38.6347 14.2971 38.6568 19.4999 38.6568C24.7026 38.6568 25.3553 38.6347 27.3983 38.5415C29.4374 38.4484 30.8299 38.1246 32.0485 37.651C33.321 37.1588 34.4768 36.4062 35.4416 35.4414C36.4064 34.4766 37.159 33.3209 37.6512 32.0483C38.1248 30.8297 38.4486 29.4372 38.5417 27.3981C38.6349 25.3548 38.6569 24.7024 38.6569 19.4997C38.6569 14.297 38.6349 13.6443 38.5417 11.6013C38.4486 9.56214 38.1248 8.16962 37.6512 6.95109C37.1702 5.67282 36.4161 4.51487 35.4416 3.55799C34.4847 2.58327 33.3266 1.82904 32.0482 1.34791C30.8296 0.874687 29.4371 0.550891 27.398 0.458193C25.355 0.364582 24.7025 0.342529 19.4997 0.342529Z" fill="white"/>
<path d="M19.4996 9.66222C17.5539 9.66222 15.6519 10.2392 14.0342 11.3201C12.4164 12.4011 11.1555 13.9375 10.4109 15.7351C9.66635 17.5326 9.47153 19.5106 9.85112 21.4189C10.2307 23.3272 11.1676 25.08 12.5434 26.4558C13.9192 27.8316 15.6721 28.7686 17.5804 29.1481C19.4886 29.5277 21.4666 29.3329 23.2642 28.5883C25.0618 27.8438 26.5982 26.5829 27.6791 24.9651C28.7601 23.3473 29.337 21.4454 29.337 19.4997C29.337 16.8906 28.3006 14.3884 26.4557 12.5435C24.6108 10.6987 22.1086 9.66222 19.4996 9.66222ZM19.4996 25.8854C18.2366 25.8853 17.002 25.5108 15.9519 24.8091C14.9018 24.1075 14.0833 23.1102 13.6 21.9433C13.1167 20.7765 12.9903 19.4926 13.2367 18.2539C13.4831 17.0152 14.0913 15.8774 14.9843 14.9843C15.8774 14.0913 17.0152 13.4831 18.2539 13.2367C19.4926 12.9903 20.7765 13.1168 21.9433 13.6001C23.1102 14.0834 24.1075 14.9019 24.8091 15.952C25.5108 17.0021 25.8853 18.2367 25.8853 19.4997C25.8853 21.1933 25.2125 22.8175 24.0149 24.015C22.8174 25.2126 21.1932 25.8854 19.4996 25.8854Z" fill="white"/>
<path d="M29.7257 11.5724C30.9953 11.5724 32.0245 10.5432 32.0245 9.27355C32.0245 8.00395 30.9953 6.97473 29.7257 6.97473C28.4561 6.97473 27.4269 8.00395 27.4269 9.27355C27.4269 10.5432 28.4561 11.5724 29.7257 11.5724Z" fill="white"/>
</svg>
