<svg width="22" height="30" viewBox="0 0 22 30" fill="none" xmlns="http://www.w3.org/2000/svg">
<path d="M21.9078 0.105469C21.9078 0.105469 21.8422 0.170997 21.7766 0.236526C21.5797 0.433111 18.889 3.18531 18.5608 3.51295C18.4952 3.57848 18.4296 3.64401 18.3639 3.70954V3.77506C18.3639 3.77506 18.3639 10.7866 18.3639 14.2596C18.3639 15.3081 18.3639 17.4705 18.3639 17.5361C18.3639 17.5361 11.2762 17.5361 7.73229 17.5361C7.60104 17.5361 7.46978 17.5361 7.33853 17.5361C7.2729 17.5361 3.99152 17.6016 2.41646 16.16C0.972656 14.9804 1.03828 12.4248 1.03828 12.4248C1.03828 12.4248 1.03828 11.9006 1.03828 11.6385C1.03828 11.1798 1.03828 7.51019 1.03828 6.06856C1.03828 6.00303 1.03828 5.87198 1.03828 5.80645C1.03828 5.74092 1.03828 4.69246 1.30079 3.77506C1.49768 2.92319 1.82581 2.39897 1.95707 2.20238C2.15395 1.94027 2.35083 1.67815 2.54772 1.48157C2.67897 1.35051 3.33525 0.826282 4.38529 0.49864C5.43533 0.170997 6.61662 0.170997 6.68225 0.170997C7.01039 0.170997 7.40415 0.170997 7.73229 0.170997C11.0793 0.170997 14.3607 0.170997 17.7077 0.170997C19.0202 0.105469 21.9078 0.105469 21.9078 0.105469ZM14.0325 13.8009C14.0325 10.459 14.0325 3.77506 14.0325 3.77506C14.0325 3.77506 9.50423 3.77506 8.78233 3.77506C8.51982 3.77506 8.25731 3.77506 7.92917 3.77506C7.79792 3.77506 7.66666 3.77506 7.46978 3.77506C7.40415 3.77506 6.28849 3.84059 5.82909 4.36482C5.50096 4.88905 5.3697 5.74092 5.3697 5.93751C5.3697 6.06856 5.3697 6.26515 5.3697 6.3962C5.3697 6.46173 5.3697 9.47605 5.3697 10.9832C5.3697 11.1798 5.3697 11.3764 5.3697 11.573C5.3697 11.6385 5.43533 12.4248 5.76346 12.9491C6.0916 13.4733 6.68225 13.6043 6.81351 13.6699C7.01039 13.7354 7.2729 13.7354 7.46978 13.8009C7.60104 13.8009 7.73229 13.8009 7.86355 13.8665C7.9948 13.8665 8.32294 13.8665 8.45419 13.8665C9.96363 13.8665 11.4731 13.8665 12.9825 13.8665C13.3106 13.8665 13.6388 13.8665 13.9669 13.8665C13.9669 13.8009 14.0325 13.8009 14.0325 13.8009ZM10.0293 25.6616C6.35411 25.3995 3.92589 22.6473 3.53213 22.3196L0.972656 24.4821C0.972656 24.5476 2.21958 26.4479 4.05715 27.7585C6.22286 29.3312 9.63549 30.6418 13.5731 29.3967C17.7733 28.0206 19.4796 24.9408 19.8734 24.4821L17.3795 22.3196C16.7889 22.9749 13.8356 25.9237 10.0293 25.6616Z" fill="black"/>
</svg>
