<svg width="4" height="20" viewBox="0 0 4 20" fill="none" xmlns="http://www.w3.org/2000/svg">
<path d="M2.00012 4.59103C0.947088 4.59103 0.0934373 3.73738 0.0934373 2.68434C0.0934374 1.63131 0.947088 0.777664 2.00012 0.777664C3.05315 0.777664 3.9068 1.63131 3.9068 2.68435C3.9068 3.73738 3.05315 4.59103 2.00012 4.59103Z" fill="#8E96A4"/>
<path d="M2.00012 11.9384C0.947087 11.9384 0.093437 11.0847 0.093437 10.0317C0.0934371 8.97865 0.947087 8.125 2.00012 8.125C3.05315 8.125 3.9068 8.97865 3.9068 10.0317C3.9068 11.0847 3.05315 11.9384 2.00012 11.9384Z" fill="#8E96A4"/>
<path d="M2.00012 19.2634C0.947087 19.2634 0.0934371 18.4097 0.0934372 17.3567C0.0934372 16.3037 0.947087 15.45 2.00012 15.45C3.05315 15.45 3.9068 16.3037 3.9068 17.3567C3.9068 18.4097 3.05315 19.2634 2.00012 19.2634Z" fill="#8E96A4"/>
</svg>
