<svg width="23" height="39" viewBox="0 0 23 39" fill="none" xmlns="http://www.w3.org/2000/svg">
<path d="M11.6569 0.98291C6.36401 0.98291 2.07342 5.27949 2.07342 10.5794C2.07342 15.8795 6.36401 20.1763 11.6569 20.1763C16.9497 20.1763 21.2403 15.8795 21.2403 10.5794C21.2403 5.27949 16.9497 0.98291 11.6569 0.98291ZM11.6569 14.5467C9.46898 14.5467 7.69528 12.7704 7.69528 10.5796C7.69528 8.3887 9.46898 6.61258 11.6569 6.61258C13.8447 6.61258 15.6184 8.3887 15.6184 10.5796C15.6184 12.7704 13.8447 14.5467 11.6569 14.5467Z" fill="white"/>
<path d="M15.0401 27.8123C18.8767 27.0296 21.1758 25.2103 21.2975 25.1126C22.4201 24.211 22.6005 22.5688 21.7001 21.4445C20.7999 20.3203 19.1601 20.1397 18.0371 21.0411C18.0134 21.0603 15.5612 22.944 11.5266 22.9467C7.49202 22.944 4.98802 21.0603 4.96429 21.0411C3.84135 20.1397 2.2015 20.3203 1.30128 21.4445C0.400919 22.5688 0.581266 24.211 1.70394 25.1126C1.82723 25.2116 4.22124 27.0784 8.1654 27.8426L2.66848 33.5952C1.66951 34.6326 1.69955 36.2845 2.73554 37.2848C3.2412 37.773 3.89291 38.0157 4.54408 38.0157C5.22679 38.0157 5.90881 37.7486 6.42009 37.2175L11.5267 31.7702L17.1491 37.2528C18.1678 38.2713 19.8174 38.2696 20.8342 37.2499C21.851 36.2301 21.8498 34.578 20.8313 33.5598L15.0401 27.8123Z" fill="white"/>
</svg>
