<svg width="16" height="16" viewBox="0 0 16 16" fill="none" xmlns="http://www.w3.org/2000/svg">
<path d="M8.00093 15.1719C8.47721 15.1719 8.8633 14.7858 8.8633 14.3095V8.86149H14.3115C14.7878 8.86149 15.1739 8.47539 15.1739 7.99911C15.1739 7.52284 14.7878 7.13674 14.3115 7.13674H8.86331V1.68745C8.86331 1.21117 8.47721 0.825073 8.00093 0.825073C7.52466 0.825073 7.13856 1.21117 7.13856 1.68745L7.13856 7.13674H1.6894C1.21312 7.13674 0.827026 7.52284 0.827026 7.99911C0.827026 8.47539 1.21312 8.86149 1.6894 8.86149H7.13856L7.13856 14.3095C7.13856 14.7858 7.52465 15.1719 8.00093 15.1719Z" fill="#1E2F4B"/>
</svg>
