<svg width="22" height="12" viewBox="0 0 22 12" fill="none" xmlns="http://www.w3.org/2000/svg">
<path d="M7.54327 6.16833C7.54327 6.87054 6.97406 7.43976 6.27185 7.43976C5.5697 7.43976 5.00049 6.87054 5.00049 6.16833C5.00049 5.46625 5.5697 4.89691 6.27185 4.89691C6.97406 4.89691 7.54327 5.46625 7.54327 6.16833ZM10.6215 4.89691C9.91931 4.89691 9.3501 5.46625 9.3501 6.16833C9.3501 6.87054 9.91931 7.43976 10.6215 7.43976C11.3237 7.43976 11.8929 6.87054 11.8929 6.16833C11.8929 5.46625 11.3237 4.89691 10.6215 4.89691ZM21.9507 3.46191V8.5415C21.9507 10.1675 20.6274 11.4907 19.0005 11.4907H3.00098C1.37451 11.4907 0.0507812 10.1675 0.0507812 8.5415V3.46191C0.0507812 1.83545 1.37451 0.511719 3.00098 0.511719H19.0005C20.6274 0.511719 21.9507 1.83545 21.9507 3.46191ZM19.0005 2.41211H3.00098C2.42188 2.41211 1.95117 2.88281 1.95117 3.46191V8.5415C1.95117 9.12061 2.42188 9.59131 3.00098 9.59131H19.0005C19.5796 9.59131 20.0513 9.12061 20.0513 8.5415V3.46191C20.0513 2.88281 19.5796 2.41211 19.0005 2.41211Z" fill="#1E2F4B"/>
</svg>
