<svg width="16" height="18" viewBox="0 0 16 18" fill="none" xmlns="http://www.w3.org/2000/svg">
<path fill-rule="evenodd" clip-rule="evenodd" d="M10.3189 3.72856L6.78999 0.5V2.40595C6.76491 2.40663 6.73956 2.40849 6.71401 2.41158C2.9314 2.8676 9.25468e-06 6.08848 0 9.99405C0 14.2122 3.41953 17.6318 7.63772 17.6318C11.5433 17.6318 14.7642 14.7003 15.2202 10.9178C15.2813 10.4103 14.8612 9.99405 14.3501 9.99405C13.8389 9.99405 13.4324 10.4112 13.3516 10.9158C12.91 13.6737 10.52 15.7808 7.63772 15.7808C4.84128 15.7808 2.50811 13.7973 1.96851 11.1602C1.89142 10.7836 1.85094 10.3935 1.85094 9.99405C1.85095 7.11179 3.95808 4.72173 6.71586 4.28024C6.74085 4.27625 6.76556 4.27147 6.78999 4.26591V6.95711L10.3189 3.72856Z" fill="#8E96A4"/>
</svg>
