<svg width="20" height="20" viewBox="0 0 20 20" fill="none" xmlns="http://www.w3.org/2000/svg">
<path d="M8.67972 5.81422C8.67972 5.35591 9.05126 4.98438 9.50957 4.98438C9.96787 4.98438 10.3394 5.35591 10.3394 5.81422V10.6604L13.2889 12.3609C13.686 12.5898 13.8223 13.0973 13.5934 13.4943C13.3645 13.8914 12.857 14.0277 12.46 13.7988L9.22779 11.9353C9.21539 11.9267 9.20307 11.9182 9.19083 11.9098C8.97435 11.7606 8.78434 11.6297 8.71355 11.3898C8.67742 11.277 8.66538 11.1566 8.67972 11.0372V5.81422Z" fill="#1E2F4B"/>
<path fill-rule="evenodd" clip-rule="evenodd" d="M19.6808 10.0016C19.6808 15.3484 15.3464 19.6828 9.9996 19.6828C4.6528 19.6828 0.318359 15.3484 0.318359 10.0016C0.318359 4.65475 4.6528 0.320312 9.9996 0.320312C15.3464 0.320312 19.6808 4.65475 19.6808 10.0016ZM17.6808 10.0016C17.6808 14.2438 14.2418 17.6828 9.9996 17.6828C5.75737 17.6828 2.31836 14.2438 2.31836 10.0016C2.31836 5.75932 5.75737 2.32031 9.9996 2.32031C14.2418 2.32031 17.6808 5.75932 17.6808 10.0016Z" fill="#1E2F4B"/>
</svg>
