<svg width="20" height="18" viewBox="0 0 20 18" fill="none" xmlns="http://www.w3.org/2000/svg">
<path d="M18.4437 13.3203C16.5502 11.0332 13.3949 9.66797 10.0028 9.66797C6.6112 9.66797 3.45593 11.0332 1.5614 13.3213C1.14099 13.8301 0.933468 14.373 0.943722 14.9346C0.952999 15.4463 1.14782 15.957 1.5072 16.4121C2.23571 17.3359 3.51403 17.9092 4.9281 17.9092H15.1605C16.4896 17.9092 17.7679 17.3359 18.4965 16.4141C18.8568 15.958 19.0531 15.4463 19.0619 14.9316C19.0697 14.3682 18.8617 13.8262 18.4437 13.3203ZM16.9271 15.1729C16.6381 15.54 15.9799 15.9092 15.0736 15.9092H4.84411C4.02429 15.9092 3.36608 15.54 3.07702 15.1729C2.97985 15.0498 2.9447 14.9512 2.94372 14.8984C2.94274 14.8467 2.98425 14.7393 3.10241 14.5957C4.62048 12.7627 7.20007 11.668 10.0028 11.668C12.805 11.668 15.3851 12.7627 16.9027 14.5957C17.0052 14.7188 17.0629 14.8311 17.0619 14.8994C17.0609 14.9502 17.0258 15.0498 16.9271 15.1729ZM10.0052 7.78955C12.1283 7.78955 13.8549 6.0625 13.8549 3.93945C13.8549 1.81689 12.1283 0.0898438 10.0052 0.0898438C7.88269 0.0898438 6.15564 1.81689 6.15564 3.93945C6.15564 6.0625 7.88269 7.78955 10.0052 7.78955ZM10.0052 2.08984C11.0248 2.08984 11.8549 2.91943 11.8549 3.93945C11.8549 4.95947 11.0248 5.78955 10.0052 5.78955C8.98523 5.78955 8.15564 4.95947 8.15564 3.93945C8.15564 2.91943 8.98523 2.08984 10.0052 2.08984Z" fill="#1E2F4B"/>
</svg>
