<svg width="15" height="17" viewBox="0 0 15 17" fill="none" xmlns="http://www.w3.org/2000/svg">
<path d="M12.1023 7.3836C12.1023 6.72085 12.6396 6.18359 13.3023 6.18359C13.9651 6.18359 14.5023 6.72085 14.5023 7.38359V15.3442C14.5023 16.0069 13.9651 16.5442 13.3023 16.5442C12.6396 16.5442 12.1023 16.0069 12.1023 15.3442V7.3836Z" fill="#1E2F4B"/>
<path d="M6.30156 1.27031C6.30156 0.607571 6.83882 0.0703125 7.50156 0.0703125C8.1643 0.0703125 8.70156 0.607571 8.70156 1.27031V15.3419C8.70156 16.0046 8.1643 16.5419 7.50156 16.5419C6.83882 16.5419 6.30156 16.0046 6.30156 15.3419V1.27031Z" fill="#1E2F4B"/>
<path d="M0.5 12.8211C0.5 12.1584 1.03726 11.6211 1.7 11.6211C2.36274 11.6211 2.9 12.1584 2.9 12.8211V15.3316C2.9 15.9944 2.36274 16.5316 1.7 16.5316C1.03726 16.5316 0.5 15.9944 0.5 15.3316V12.8211Z" fill="#1E2F4B"/>
</svg>
