<svg width="40" height="33" viewBox="0 0 40 33" fill="none" xmlns="http://www.w3.org/2000/svg">
  <path d="M15.2111 31.0191C14.0595 31.0191 14.2553 30.5843 13.8581 29.4878L10.472 18.3442L36.5369 2.88092" fill="#C8DAEA"/>
  <path d="M15.2128 31.0185C16.1013 31.0185 16.4938 30.6122 16.9899 30.13L21.729 25.5218L15.8176 21.9572" fill="#A9C9DD"/>
  <path d="M15.8151 21.9591L30.1389 32.5417C31.7736 33.4436 32.953 32.9765 33.3603 31.0244L39.1908 3.54878C39.7877 1.15556 38.2786 0.0697245 36.7147 0.779694L2.47796 13.9812C0.14101 14.9187 0.154931 16.2225 2.05203 16.8033L10.8379 19.5458L31.1783 6.71329C32.1385 6.13098 33.02 6.44376 32.2967 7.0859" fill="url(#paint0_linear)"/>
  <defs>
    <linearGradient id="paint0_linear" x1="26.183" y1="14.7319" x2="31.7299" y2="27.3701" gradientUnits="userSpaceOnUse">
      <stop stop-color="#EFF7FC"/>
      <stop offset="1" stop-color="white"/>
    </linearGradient>
  </defs>
</svg>
