<svg width="39" height="32" viewBox="0 0 39 32" fill="none" xmlns="http://www.w3.org/2000/svg">
<path d="M12.3611 31.3433C26.9389 31.3433 34.9158 19.4495 34.9158 9.15264C34.9158 8.81808 34.9158 8.4834 34.9003 8.14883C36.4463 7.05376 37.7912 5.66968 38.8578 4.10311C37.4356 4.7267 35.9052 5.13736 34.2974 5.33508C35.9361 4.37689 37.1883 2.84072 37.7912 1.01558C36.2607 1.91294 34.5602 2.55174 32.7515 2.90156C31.2984 1.38061 29.2423 0.437622 26.9698 0.437622C22.5949 0.437622 19.0393 3.9358 19.0393 8.24015C19.0393 8.84848 19.1167 9.44161 19.2403 10.0195C12.6548 9.70018 6.81126 6.58225 2.90012 1.86732C2.21992 3.02323 1.83345 4.36167 1.83345 5.79136C1.83345 8.4986 3.24022 10.8866 5.3581 12.2858C4.05954 12.2402 2.83828 11.8904 1.77161 11.3124C1.77161 11.3428 1.77161 11.3732 1.77161 11.4189C1.77161 15.1908 4.50786 18.3544 8.12526 19.0692C7.46053 19.2517 6.76487 19.343 6.03831 19.343C5.52816 19.343 5.03346 19.2974 4.55423 19.2061C5.55908 22.3089 8.49629 24.5599 11.959 24.6207C9.23832 26.7196 5.82188 27.9669 2.11171 27.9669C1.47789 27.9669 0.844066 27.9363 0.225708 27.8604C3.71945 30.0505 7.89338 31.3433 12.3611 31.3433Z" fill="white"/>
</svg>
