<svg width="43" height="25" viewBox="0 0 43 25" fill="none" xmlns="http://www.w3.org/2000/svg">
<path d="M41.5973 1.94795C41.938 0.964302 41.5973 0.308534 40.2345 0.308534H35.6351C34.4427 0.308534 33.9317 0.882331 33.591 1.5381C33.591 1.5381 31.2061 7.03016 27.8844 10.6369C26.7771 11.7025 26.3513 12.0304 25.7551 12.0304C25.4144 12.0304 25.0737 11.7025 25.0737 10.7189V1.86598C25.0737 0.718389 24.733 0.226562 23.7109 0.226562H16.386C15.7046 0.226562 15.1936 0.718389 15.1936 1.29219C15.1936 2.35781 16.8971 2.60372 17.0674 5.63665V12.1943C17.0674 13.5878 16.8119 13.9157 16.2157 13.9157C14.6826 13.9157 10.8498 8.3417 8.55009 1.94795C8.03905 0.718389 7.61319 0.226562 6.42076 0.226562H1.73624C0.458644 0.226562 0.203125 0.80036 0.203125 1.45613C0.203125 2.68569 1.73624 8.50564 7.52801 16.2929C11.3608 21.621 16.8119 24.49 21.6667 24.49C24.6478 24.49 24.9885 23.8342 24.9885 22.7686V18.752C24.9885 17.4405 25.244 17.2765 26.1809 17.2765C26.8623 17.2765 28.0547 17.6044 30.7803 20.1455C33.9317 23.1785 34.4427 24.572 36.2313 24.572H40.8307C42.1935 24.572 42.7897 23.9162 42.449 22.6866C42.0231 21.4571 40.49 19.6537 38.531 17.4405C37.4238 16.2109 35.8055 14.8994 35.3796 14.2436C34.6982 13.3419 34.8686 13.014 35.3796 12.2763C35.3796 12.1943 41.001 4.48906 41.5973 1.94795Z" fill="white"/>
</svg>
